<svg xmlns="http://www.w3.org/2000/svg" viewBox="0.0 0.0 2551.1549814728783 2551.1549814728783" width="2551" height="2551" font-family="system-ui, -apple-system, sans-serif"><defs><filter id="glow-warn" x="-60%" y="-60%" width="220%" height="220%"><feGaussianBlur in="SourceAlpha" stdDeviation="6" result="blur" /><feFlood flood-color="#f59e0b" flood-opacity="0.85" result="flood" /><feComposite in="flood" in2="blur" operator="in" result="glow" /><feMerge><feMergeNode in="glow" /><feMergeNode in="SourceGraphic" /></feMerge></filter><filter id="glow-crit" x="-60%" y="-60%" width="220%" height="220%"><feGaussianBlur in="SourceAlpha" stdDeviation="8" result="blur" /><feFlood flood-color="#ef4444" flood-opacity="0.85" result="flood" /><feComposite in="flood" in2="blur" operator="in" result="glow" /><feMerge><feMergeNode in="glow" /><feMergeNode in="SourceGraphic" /></feMerge></filter><style>svg.alerts-mode #ring-fills,svg.alerts-mode #rings,svg.alerts-mode .mesh-links{opacity:0.08}svg.alerts-mode #edges line:not(.alert){opacity:0.08}svg.alerts-mode #lqi-labels rect:not(.alert),svg.alerts-mode #lqi-labels text:not(.alert){opacity:0.08}svg.alerts-mode #nodes circle:not(.alert),svg.alerts-mode #nodes rect:not(.alert),svg.alerts-mode #nodes text:not(.alert){opacity:0.08}svg.alerts-mode #labels rect:not(.alert),svg.alerts-mode #labels text:not(.alert){opacity:0.08}</style></defs><g id="ring-fills"><path d="M 940.0 1275.5774907364391 A 335.5774907364391 335.5774907364391 0 1 1 1611.1549814728783 1275.5774907364391 A 335.5774907364391 335.5774907364391 0 1 1 940.0 1275.5774907364391 Z" fill="#101819" fill-opacity="0.80" fill-rule="evenodd" stroke="none" /><path d="M 740.0 1275.5774907364391 A 535.5774907364391 535.5774907364391 0 1 1 1811.1549814728783 1275.5774907364391 A 535.5774907364391 535.5774907364391 0 1 1 740.0 1275.5774907364391 Z M 940.0 1275.5774907364391 A 335.5774907364391 335.5774907364391 0 1 0 1611.1549814728783 1275.5774907364391 A 335.5774907364391 335.5774907364391 0 1 0 940.0 1275.5774907364391 Z" fill="#1C2829" fill-opacity="0.80" fill-rule="evenodd" stroke="none" /><path d="M 540.0 1275.5774907364391 A 735.5774907364391 735.5774907364391 0 1 1 2011.1549814728783 1275.5774907364391 A 735.5774907364391 735.5774907364391 0 1 1 540.0 1275.5774907364391 Z M 740.0 1275.5774907364391 A 535.5774907364391 535.5774907364391 0 1 0 1811.1549814728783 1275.5774907364391 A 535.5774907364391 535.5774907364391 0 1 0 740.0 1275.5774907364391 Z" fill="#2B3A3A" fill-opacity="0.80" fill-rule="evenodd" stroke="none" /><path d="M 340.0 1275.5774907364391 A 935.5774907364391 935.5774907364391 0 1 1 2211.1549814728783 1275.5774907364391 A 935.5774907364391 935.5774907364391 0 1 1 340.0 1275.5774907364391 Z M 540.0 1275.5774907364391 A 735.5774907364391 735.5774907364391 0 1 0 2011.1549814728783 1275.5774907364391 A 735.5774907364391 735.5774907364391 0 1 0 540.0 1275.5774907364391 Z" fill="#425352" fill-opacity="0.80" fill-rule="evenodd" stroke="none" /></g><g id="rings"><circle cx="1275.5774907364391" cy="1275.5774907364391" r="335.6" fill="none" stroke="#101819" stroke-opacity="0.3" stroke-width="1" stroke-dasharray="5,4" /><text x="1275.5774907364391" y="954.0" fill="#e2e8f0" font-size="16px" text-anchor="middle" font-weight="bold" letter-spacing="0.5" stroke="black" stroke-width="3" stroke-opacity="0.6" paint-order="stroke">Hop 1</text><circle cx="1275.5774907364391" cy="1275.5774907364391" r="535.6" fill="none" stroke="#1C2829" stroke-opacity="0.3" stroke-width="1" stroke-dasharray="5,4" /><text x="1275.5774907364391" y="754.0" fill="#e2e8f0" font-size="16px" text-anchor="middle" font-weight="bold" letter-spacing="0.5" stroke="black" stroke-width="3" stroke-opacity="0.6" paint-order="stroke">Hop 2</text><circle cx="1275.5774907364391" cy="1275.5774907364391" r="735.6" fill="none" stroke="#2B3A3A" stroke-opacity="0.3" stroke-width="1" stroke-dasharray="5,4" /><text x="1275.5774907364391" y="554.0" fill="#e2e8f0" font-size="16px" text-anchor="middle" font-weight="bold" letter-spacing="0.5" stroke="black" stroke-width="3" stroke-opacity="0.6" paint-order="stroke">Hop 3</text><circle cx="1275.5774907364391" cy="1275.5774907364391" r="935.6" fill="none" stroke="#425352" stroke-opacity="0.3" stroke-width="1" stroke-dasharray="5,4" /><text x="1275.5774907364391" y="354.0" fill="#e2e8f0" font-size="16px" text-anchor="middle" font-weight="bold" letter-spacing="0.5" stroke="black" stroke-width="3" stroke-opacity="0.6" paint-order="stroke">Hop 4</text></g><g id="edges" opacity="0.55"><line x1="1408.4" y1="1173.1" x2="1275.6" y2="1275.6" stroke="#22c55e" stroke-width="2.77" /><line x1="1374.2" y1="1411.3" x2="1275.6" y2="1275.6" stroke="#22c55e" stroke-width="3.07" /><line x1="1162.2" y1="1399.2" x2="1275.6" y2="1275.6" stroke="#22c55e" stroke-width="2.96" /><line x1="1115.6" y1="1225.1" x2="1275.6" y2="1275.6" stroke="#22c55e" stroke-width="2.92" /><line x1="1384.8" y1="853.9" x2="1408.4" y2="1173.1" stroke="#22c55e" stroke-width="2.71" /><line x1="1575.8" y1="960.0" x2="1408.4" y2="1173.1" stroke="#22c55e" stroke-width="1.83" /><line x1="1604.8" y1="1560.8" x2="1374.2" y2="1411.3" stroke="#22c55e" stroke-width="3.09" /><line x1="1662.4" y1="1075.4" x2="1408.4" y2="1173.1" stroke="#22c55e" stroke-width="2.23" /><line x1="1867.9" y1="1506.1" x2="1604.8" y2="1560.8" stroke="#22c55e" stroke-width="2.28" /><line x1="1800.3" y1="1634.2" x2="1604.8" y2="1560.8" stroke="#22c55e" stroke-width="2.47" /><line x1="981.1" y1="1596.6" x2="1162.2" y2="1399.2" stroke="#22c55e" stroke-width="2.81" /><line x1="1244.6" y1="640.8" x2="1384.8" y2="853.9" stroke="#22c55e" stroke-width="2.01" /><line x1="1522.5" y1="689.9" x2="1575.8" y2="960.0" stroke="#22c55e" stroke-width="1.44" /><line x1="1646.4" y1="759.4" x2="1575.8" y2="960.0" stroke="#22c55e" stroke-width="2.21" /><line x1="1706.3" y1="1210.5" x2="1408.4" y2="1173.1" stroke="#22c55e" stroke-width="3.28" /><line x1="1705.4" y1="1743.8" x2="1604.8" y2="1560.8" stroke="#22c55e" stroke-width="1.46" /><line x1="1131.8" y1="1894.7" x2="981.1" y2="1596.6" stroke="#22c55e" stroke-width="2.97" /><line x1="1332.0" y1="441.9" x2="1244.6" y2="640.8" stroke="#f59e0b" stroke-width="1.33" /><line x1="1386.4" y1="649.7" x2="1384.8" y2="853.9" stroke="#22c55e" stroke-width="1.43" /><line x1="1588.2" y1="1828.9" x2="1604.8" y2="1560.8" stroke="#22c55e" stroke-width="2.02" /><line x1="1751.8" y1="854.6" x2="1575.8" y2="960.0" stroke="#22c55e" stroke-width="1.69" /><line x1="932.1" y1="1810.4" x2="981.1" y2="1596.6" stroke="#22c55e" stroke-width="1.99" /><line x1="1211.5" y1="1120.5" x2="1275.6" y2="1275.6" stroke="#22c55e" stroke-width="2.96" /><line x1="841.6" y1="1238.5" x2="1115.6" y2="1225.1" stroke="#22c55e" stroke-width="1.69" /><line x1="772.4" y1="1663.8" x2="981.1" y2="1596.6" stroke="#22c55e" stroke-width="3.17" /><line x1="1887.1" y1="1102.3" x2="1575.8" y2="960.0" stroke="#22c55e" stroke-width="3.5" /><line x1="1704.3" y1="1352.5" x2="1408.4" y2="1173.1" stroke="#22c55e" stroke-width="3.5" /><line x1="1349.9" y1="1704.8" x2="1374.2" y2="1411.3" stroke="#22c55e" stroke-width="1.83" /><line x1="1833.3" y1="970.8" x2="1575.8" y2="960.0" stroke="#22c55e" stroke-width="1.83" /><line x1="671.2" y1="1472.2" x2="981.1" y2="1596.6" stroke="#22c55e" stroke-width="2.46" /><line x1="902.5" y1="1050.8" x2="1115.6" y2="1225.1" stroke="#22c55e" stroke-width="3.33" /><line x1="1472.3" y1="463.5" x2="1244.6" y2="640.8" stroke="#22c55e" stroke-width="2.88" /></g><g id="lqi-labels"><rect x="1328.9" y="1200.0" width="66" height="13" rx="4" fill="#0f172a" opacity="0.85" /><text x="1361.9" y="1210.0" fill="#22c55e" font-size="11px" text-anchor="middle" opacity="0.95">LQI: 179</text><rect x="1306.7" y="1354.8" width="66" height="13" rx="4" fill="#0f172a" opacity="0.85" /><text x="1339.7" y="1364.8" fill="#22c55e" font-size="11px" text-anchor="middle" opacity="0.95">LQI: 207</text><rect x="1168.9" y="1346.9" width="66" height="13" rx="4" fill="#0f172a" opacity="0.85" /><text x="1201.9" y="1356.9" fill="#22c55e" font-size="11px" text-anchor="middle" opacity="0.95">LQI: 197</text><rect x="1138.6" y="1233.8" width="66" height="13" rx="4" fill="#0f172a" opacity="0.85" /><text x="1171.6" y="1243.8" fill="#22c55e" font-size="11px" text-anchor="middle" opacity="0.95">LQI: 193</text><rect x="1360.1" y="956.6" width="66" height="13" rx="4" fill="#0f172a" opacity="0.85" /><text x="1393.1" y="966.6" fill="#22c55e" font-size="11px" text-anchor="middle" opacity="0.95">LQI: 174</text><rect x="1487.7" y="1025.6" width="59" height="13" rx="4" fill="#0f172a" opacity="0.85" /><text x="1517.2" y="1035.6" fill="#22c55e" font-size="11px" text-anchor="middle" opacity="0.95">LQI: 94</text><rect x="1491.1" y="1499.5" width="66" height="13" rx="4" fill="#0f172a" opacity="0.85" /><text x="1524.1" y="1509.5" fill="#22c55e" font-size="11px" text-anchor="middle" opacity="0.95">LQI: 209</text><rect x="1540.5" y="1100.6" width="66" height="13" rx="4" fill="#0f172a" opacity="0.85" /><text x="1573.5" y="1110.6" fill="#22c55e" font-size="11px" text-anchor="middle" opacity="0.95">LQI: 130</text><rect x="1742.8" y="1516.2" width="66" height="13" rx="4" fill="#0f172a" opacity="0.85" /><text x="1775.8" y="1526.2" fill="#22c55e" font-size="11px" text-anchor="middle" opacity="0.95">LQI: 135</text><rect x="1698.9" y="1599.5" width="66" height="13" rx="4" fill="#0f172a" opacity="0.85" /><text x="1731.9" y="1609.5" fill="#22c55e" font-size="11px" text-anchor="middle" opacity="0.95">LQI: 152</text><rect x="1011.5" y="1518.5" width="66" height="13" rx="4" fill="#0f172a" opacity="0.85" /><text x="1044.5" y="1528.5" fill="#22c55e" font-size="11px" text-anchor="middle" opacity="0.95">LQI: 183</text><rect x="1260.7" y="706.4" width="66" height="13" rx="4" fill="#0f172a" opacity="0.85" /><text x="1293.7" y="716.4" fill="#22c55e" font-size="11px" text-anchor="middle" opacity="0.95">LQI: 110</text><rect x="1511.7" y="775.5" width="59" height="13" rx="4" fill="#0f172a" opacity="0.85" /><text x="1541.2" y="785.5" fill="#22c55e" font-size="11px" text-anchor="middle" opacity="0.95">LQI: 58</text><rect x="1588.7" y="820.6" width="66" height="13" rx="4" fill="#0f172a" opacity="0.85" /><text x="1621.7" y="830.6" fill="#22c55e" font-size="11px" text-anchor="middle" opacity="0.95">LQI: 128</text><rect x="1569.0" y="1188.4" width="66" height="13" rx="4" fill="#0f172a" opacity="0.85" /><text x="1602.0" y="1198.4" fill="#22c55e" font-size="11px" text-anchor="middle" opacity="0.95">LQI: 226</text><rect x="1640.7" y="1670.7" width="59" height="13" rx="4" fill="#0f172a" opacity="0.85" /><text x="1670.2" y="1680.7" fill="#22c55e" font-size="11px" text-anchor="middle" opacity="0.95">LQI: 60</text><rect x="1046.1" y="1781.3" width="66" height="13" rx="4" fill="#0f172a" opacity="0.85" /><text x="1079.1" y="1791.3" fill="#22c55e" font-size="11px" text-anchor="middle" opacity="0.95">LQI: 198</text><rect x="1271.9" y="502.5" width="59" height="13" rx="4" fill="#0f172a" opacity="0.85" /><text x="1301.4" y="512.5" fill="#f59e0b" font-size="11px" text-anchor="middle" opacity="0.95">LQI: 48</text><rect x="1356.3" y="712.2" width="59" height="13" rx="4" fill="#0f172a" opacity="0.85" /><text x="1385.8" y="722.2" fill="#22c55e" font-size="11px" text-anchor="middle" opacity="0.95">LQI: 57</text><rect x="1561.0" y="1726.1" width="66" height="13" rx="4" fill="#0f172a" opacity="0.85" /><text x="1594.0" y="1736.1" fill="#22c55e" font-size="11px" text-anchor="middle" opacity="0.95">LQI: 111</text><rect x="1660.7" y="882.5" width="59" height="13" rx="4" fill="#0f172a" opacity="0.85" /><text x="1690.2" y="892.5" fill="#22c55e" font-size="11px" text-anchor="middle" opacity="0.95">LQI: 81</text><rect x="916.3" y="1726.5" width="66" height="13" rx="4" fill="#0f172a" opacity="0.85" /><text x="949.3" y="1736.5" fill="#22c55e" font-size="11px" text-anchor="middle" opacity="0.95">LQI: 108</text><rect x="1201.0" y="1165.8" width="66" height="13" rx="4" fill="#0f172a" opacity="0.85" /><text x="1234.0" y="1175.8" fill="#22c55e" font-size="11px" text-anchor="middle" opacity="0.95">LQI: 197</text><rect x="908.0" y="1224.8" width="59" height="13" rx="4" fill="#0f172a" opacity="0.85" /><text x="937.5" y="1234.8" fill="#22c55e" font-size="11px" text-anchor="middle" opacity="0.95">LQI: 81</text><rect x="812.4" y="1631.3" width="66" height="13" rx="4" fill="#0f172a" opacity="0.85" /><text x="845.4" y="1641.3" fill="#22c55e" font-size="11px" text-anchor="middle" opacity="0.95">LQI: 216</text><rect x="1745.1" y="1043.5" width="66" height="13" rx="4" fill="#0f172a" opacity="0.85" /><text x="1778.1" y="1053.5" fill="#22c55e" font-size="11px" text-anchor="middle" opacity="0.95">LQI: 246</text><rect x="1567.8" y="1280.7" width="66" height="13" rx="4" fill="#0f172a" opacity="0.85" /><text x="1600.8" y="1290.7" fill="#22c55e" font-size="11px" text-anchor="middle" opacity="0.95">LQI: 246</text><rect x="1328.9" y="1593.0" width="59" height="13" rx="4" fill="#0f172a" opacity="0.85" /><text x="1358.4" y="1603.0" fill="#22c55e" font-size="11px" text-anchor="middle" opacity="0.95">LQI: 94</text><rect x="1713.7" y="958.0" width="59" height="13" rx="4" fill="#0f172a" opacity="0.85" /><text x="1743.2" y="968.0" fill="#22c55e" font-size="11px" text-anchor="middle" opacity="0.95">LQI: 94</text><rect x="746.7" y="1506.7" width="66" height="13" rx="4" fill="#0f172a" opacity="0.85" /><text x="779.7" y="1516.7" fill="#22c55e" font-size="11px" text-anchor="middle" opacity="0.95">LQI: 151</text><rect x="944.1" y="1102.8" width="66" height="13" rx="4" fill="#0f172a" opacity="0.85" /><text x="977.1" y="1112.8" fill="#22c55e" font-size="11px" text-anchor="middle" opacity="0.95">LQI: 230</text><rect x="1359.6" y="516.5" width="66" height="13" rx="4" fill="#0f172a" opacity="0.85" /><text x="1392.6" y="526.5" fill="#22c55e" font-size="11px" text-anchor="middle" opacity="0.95">LQI: 189</text></g><g id="nodes"><circle cx="1275.6" cy="1275.6" r="28" fill="#f59e0b" stroke="#f59e0b" stroke-width="0" /><circle cx="1408.4" cy="1173.1" r="20" fill="#0ea5e9" stroke="#0ea5e9" stroke-width="0" /><rect x="1395.4" y="1167.6" width="26" height="11" rx="3" fill="#0f172a" opacity="0.82" /><text x="1408.4" y="1176.4" fill="#22c55e" font-size="9px" font-weight="bold" text-anchor="middle">179</text><circle cx="1384.8" cy="853.9" r="20" fill="#0ea5e9" stroke="#0ea5e9" stroke-width="0" /><rect x="1371.8" y="848.4" width="26" height="11" rx="3" fill="#0f172a" opacity="0.82" /><text x="1384.8" y="857.2" fill="#22c55e" font-size="9px" font-weight="bold" text-anchor="middle">174</text><circle cx="1244.6" cy="640.8" r="20" fill="#0ea5e9" stroke="#0ea5e9" stroke-width="0" /><rect x="1231.6" y="635.3" width="26" height="11" rx="3" fill="#0f172a" opacity="0.82" /><text x="1244.6" y="644.1" fill="#22c55e" font-size="9px" font-weight="bold" text-anchor="middle">110</text><circle cx="1332.0" cy="441.9" r="14" fill="#475569" stroke="#f59e0b" stroke-width="2" filter="url(#glow-warn)" /><rect x="1323.0" y="436.9" width="18" height="10" rx="3" fill="#0f172a" opacity="0.82" /><text x="1332.0" y="444.9" fill="#f59e0b" font-size="8px" font-weight="bold" text-anchor="middle">48</text><circle cx="1472.3" cy="463.5" r="14" fill="#475569" stroke="#475569" stroke-width="0" /><rect x="1460.8" y="458.5" width="23" height="10" rx="3" fill="#0f172a" opacity="0.82" /><text x="1472.3" y="466.5" fill="#22c55e" font-size="8px" font-weight="bold" text-anchor="middle">110</text><circle cx="1386.4" cy="649.7" r="14" fill="#475569" stroke="#475569" stroke-width="0" /><rect x="1377.4" y="644.7" width="18" height="10" rx="3" fill="#0f172a" opacity="0.82" /><text x="1386.4" y="652.7" fill="#22c55e" font-size="8px" font-weight="bold" text-anchor="middle">57</text><circle cx="1575.8" cy="960.0" r="20" fill="#0ea5e9" stroke="#0ea5e9" stroke-width="0" /><rect x="1565.8" y="954.5" width="20" height="11" rx="3" fill="#0f172a" opacity="0.82" /><text x="1575.8" y="963.3" fill="#22c55e" font-size="9px" font-weight="bold" text-anchor="middle">94</text><circle cx="1522.5" cy="689.9" r="14" fill="#475569" stroke="#475569" stroke-width="0" /><rect x="1513.5" y="684.9" width="18" height="10" rx="3" fill="#0f172a" opacity="0.82" /><text x="1522.5" y="692.9" fill="#22c55e" font-size="8px" font-weight="bold" text-anchor="middle">58</text><circle cx="1646.4" cy="759.4" r="14" fill="#475569" stroke="#475569" stroke-width="0" /><rect x="1637.4" y="754.4" width="18" height="10" rx="3" fill="#0f172a" opacity="0.82" /><text x="1646.4" y="762.4" fill="#22c55e" font-size="8px" font-weight="bold" text-anchor="middle">94</text><circle cx="1751.8" cy="854.6" r="14" fill="#475569" stroke="#475569" stroke-width="0" /><rect x="1742.8" y="849.6" width="18" height="10" rx="3" fill="#0f172a" opacity="0.82" /><text x="1751.8" y="857.6" fill="#22c55e" font-size="8px" font-weight="bold" text-anchor="middle">81</text><circle cx="1887.1" cy="1102.3" r="14" fill="#475569" stroke="#475569" stroke-width="0" /><rect x="1878.1" y="1097.3" width="18" height="10" rx="3" fill="#0f172a" opacity="0.82" /><text x="1887.1" y="1105.3" fill="#22c55e" font-size="8px" font-weight="bold" text-anchor="middle">94</text><circle cx="1833.3" cy="970.8" r="14" fill="#475569" stroke="#475569" stroke-width="0" /><rect x="1824.3" y="965.8" width="18" height="10" rx="3" fill="#0f172a" opacity="0.82" /><text x="1833.3" y="973.8" fill="#22c55e" font-size="8px" font-weight="bold" text-anchor="middle">94</text><circle cx="1662.4" cy="1075.4" r="20" fill="#0ea5e9" stroke="#0ea5e9" stroke-width="0" /><rect x="1649.4" y="1069.9" width="26" height="11" rx="3" fill="#0f172a" opacity="0.82" /><text x="1662.4" y="1078.7" fill="#22c55e" font-size="9px" font-weight="bold" text-anchor="middle">130</text><circle cx="1706.3" cy="1210.5" r="14" fill="#475569" stroke="#475569" stroke-width="0" /><rect x="1694.8" y="1205.5" width="23" height="10" rx="3" fill="#0f172a" opacity="0.82" /><text x="1706.3" y="1213.5" fill="#22c55e" font-size="8px" font-weight="bold" text-anchor="middle">179</text><circle cx="1704.3" cy="1352.5" r="14" fill="#475569" stroke="#475569" stroke-width="0" /><rect x="1692.8" y="1347.5" width="23" height="10" rx="3" fill="#0f172a" opacity="0.82" /><text x="1704.3" y="1355.5" fill="#22c55e" font-size="8px" font-weight="bold" text-anchor="middle">179</text><circle cx="1374.2" cy="1411.3" r="20" fill="#0ea5e9" stroke="#0ea5e9" stroke-width="0" /><rect x="1361.2" y="1405.8" width="26" height="11" rx="3" fill="#0f172a" opacity="0.82" /><text x="1374.2" y="1414.6" fill="#22c55e" font-size="9px" font-weight="bold" text-anchor="middle">207</text><circle cx="1604.8" cy="1560.8" r="20" fill="#0ea5e9" stroke="#0ea5e9" stroke-width="0" /><rect x="1591.8" y="1555.3" width="26" height="11" rx="3" fill="#0f172a" opacity="0.82" /><text x="1604.8" y="1564.1" fill="#22c55e" font-size="9px" font-weight="bold" text-anchor="middle">207</text><circle cx="1867.9" cy="1506.1" r="20" fill="#0ea5e9" stroke="#0ea5e9" stroke-width="0" /><rect x="1854.9" y="1500.6" width="26" height="11" rx="3" fill="#0f172a" opacity="0.82" /><text x="1867.9" y="1509.4" fill="#22c55e" font-size="9px" font-weight="bold" text-anchor="middle">135</text><circle cx="1800.3" cy="1634.2" r="20" fill="#0ea5e9" stroke="#0ea5e9" stroke-width="0" /><rect x="1787.3" y="1628.7" width="26" height="11" rx="3" fill="#0f172a" opacity="0.82" /><text x="1800.3" y="1637.5" fill="#22c55e" font-size="9px" font-weight="bold" text-anchor="middle">152</text><circle cx="1705.4" cy="1743.8" r="14" fill="#475569" stroke="#475569" stroke-width="0" /><rect x="1696.4" y="1738.8" width="18" height="10" rx="3" fill="#0f172a" opacity="0.82" /><text x="1705.4" y="1746.8" fill="#22c55e" font-size="8px" font-weight="bold" text-anchor="middle">60</text><circle cx="1588.2" cy="1828.9" r="14" fill="#475569" stroke="#475569" stroke-width="0" /><rect x="1576.7" y="1823.9" width="23" height="10" rx="3" fill="#0f172a" opacity="0.82" /><text x="1588.2" y="1831.9" fill="#22c55e" font-size="8px" font-weight="bold" text-anchor="middle">111</text><circle cx="1349.9" cy="1704.8" r="14" fill="#475569" stroke="#475569" stroke-width="0" /><rect x="1340.9" y="1699.8" width="18" height="10" rx="3" fill="#0f172a" opacity="0.82" /><text x="1349.9" y="1707.8" fill="#22c55e" font-size="8px" font-weight="bold" text-anchor="middle">94</text><circle cx="1162.2" cy="1399.2" r="20" fill="#0ea5e9" stroke="#0ea5e9" stroke-width="0" /><rect x="1149.2" y="1393.7" width="26" height="11" rx="3" fill="#0f172a" opacity="0.82" /><text x="1162.2" y="1402.5" fill="#22c55e" font-size="9px" font-weight="bold" text-anchor="middle">197</text><circle cx="981.1" cy="1596.6" r="20" fill="#0ea5e9" stroke="#0ea5e9" stroke-width="0" /><rect x="968.1" y="1591.1" width="26" height="11" rx="3" fill="#0f172a" opacity="0.82" /><text x="981.1" y="1599.9" fill="#22c55e" font-size="9px" font-weight="bold" text-anchor="middle">183</text><circle cx="1131.8" cy="1894.7" r="14" fill="#475569" stroke="#475569" stroke-width="0" /><rect x="1120.3" y="1889.7" width="23" height="10" rx="3" fill="#0f172a" opacity="0.82" /><text x="1131.8" y="1897.7" fill="#22c55e" font-size="8px" font-weight="bold" text-anchor="middle">183</text><circle cx="932.1" cy="1810.4" r="14" fill="#475569" stroke="#475569" stroke-width="0" /><rect x="920.6" y="1805.4" width="23" height="10" rx="3" fill="#0f172a" opacity="0.82" /><text x="932.1" y="1813.4" fill="#22c55e" font-size="8px" font-weight="bold" text-anchor="middle">108</text><circle cx="772.4" cy="1663.8" r="14" fill="#475569" stroke="#475569" stroke-width="0" /><rect x="760.9" y="1658.8" width="23" height="10" rx="3" fill="#0f172a" opacity="0.82" /><text x="772.4" y="1666.8" fill="#22c55e" font-size="8px" font-weight="bold" text-anchor="middle">183</text><circle cx="671.2" cy="1472.2" r="14" fill="#475569" stroke="#475569" stroke-width="0" /><rect x="659.7" y="1467.2" width="23" height="10" rx="3" fill="#0f172a" opacity="0.82" /><text x="671.2" y="1475.2" fill="#22c55e" font-size="8px" font-weight="bold" text-anchor="middle">151</text><circle cx="1115.6" cy="1225.1" r="20" fill="#0ea5e9" stroke="#0ea5e9" stroke-width="0" /><rect x="1102.6" y="1219.6" width="26" height="11" rx="3" fill="#0f172a" opacity="0.82" /><text x="1115.6" y="1228.4" fill="#22c55e" font-size="9px" font-weight="bold" text-anchor="middle">193</text><circle cx="841.6" cy="1238.5" r="14" fill="#475569" stroke="#475569" stroke-width="0" /><rect x="832.6" y="1233.5" width="18" height="10" rx="3" fill="#0f172a" opacity="0.82" /><text x="841.6" y="1241.5" fill="#22c55e" font-size="8px" font-weight="bold" text-anchor="middle">81</text><circle cx="902.5" cy="1050.8" r="14" fill="#475569" stroke="#475569" stroke-width="0" /><rect x="891.0" y="1045.8" width="23" height="10" rx="3" fill="#0f172a" opacity="0.82" /><text x="902.5" y="1053.8" fill="#22c55e" font-size="8px" font-weight="bold" text-anchor="middle">193</text><circle cx="1211.5" cy="1120.5" r="14" fill="#475569" stroke="#475569" stroke-width="0" /><rect x="1200.0" y="1115.5" width="23" height="10" rx="3" fill="#0f172a" opacity="0.82" /><text x="1211.5" y="1123.5" fill="#22c55e" font-size="8px" font-weight="bold" text-anchor="middle">197</text></g><g id="labels"><rect x="1237.6" y="1306.6" width="76" height="16" rx="5" fill="black" opacity="0.6" /><text x="1275.6" y="1319.6" fill="#e2e8f0" font-size="12px" text-anchor="middle" stroke="black" stroke-width="3" stroke-opacity="0.5" paint-order="stroke">Coordinator</text><rect x="1431.4" y="1139.3" width="106" height="16" rx="5" fill="black" opacity="0.6" /><text x="1435.4" y="1152.3" fill="#e2e8f0" font-size="12px" text-anchor="start" stroke="black" stroke-width="3" stroke-opacity="0.5" paint-order="stroke">Living Room Lamp</text><rect x="1389.3" y="808.0" width="100" height="16" rx="5" fill="black" opacity="0.6" /><text x="1393.3" y="821.0" fill="#e2e8f0" font-size="12px" text-anchor="start" stroke="black" stroke-width="3" stroke-opacity="0.5" paint-order="stroke">Bedroom Ceiling</text><rect x="1193.0" y="593.8" width="100" height="16" rx="5" fill="black" opacity="0.6" /><text x="1243.0" y="606.8" fill="#e2e8f0" font-size="12px" text-anchor="middle" stroke="black" stroke-width="3" stroke-opacity="0.5" paint-order="stroke">Guest Room Lamp</text><rect x="1280.8" y="401.0" width="106" height="16" rx="5" fill="black" opacity="0.6" /><text x="1333.8" y="414.0" fill="#e2e8f0" font-size="12px" text-anchor="middle" stroke="black" stroke-width="3" stroke-opacity="0.5" paint-order="stroke">Temp Living Room</text><rect x="1416.9" y="423.3" width="124" height="16" rx="5" fill="black" opacity="0.6" /><text x="1478.9" y="436.3" fill="#e2e8f0" font-size="12px" text-anchor="middle" stroke="black" stroke-width="3" stroke-opacity="0.5" paint-order="stroke">Light Sensor Garden</text><rect x="1350.2" y="609.2" width="82" height="16" rx="5" fill="black" opacity="0.6" /><text x="1391.2" y="622.2" fill="#e2e8f0" font-size="12px" text-anchor="middle" stroke="black" stroke-width="3" stroke-opacity="0.5" paint-order="stroke">Temp Bedroom</text><rect x="1595.2" y="922.3" width="82" height="16" rx="5" fill="black" opacity="0.6" /><text x="1599.2" y="935.3" fill="#e2e8f0" font-size="12px" text-anchor="start" stroke="black" stroke-width="3" stroke-opacity="0.5" paint-order="stroke">Bathroom Fan</text><rect x="1529.4" y="651.1" width="118" height="16" rx="5" fill="black" opacity="0.6" /><text x="1533.4" y="664.1" fill="#e2e8f0" font-size="12px" text-anchor="start" stroke="black" stroke-width="3" stroke-opacity="0.5" paint-order="stroke">Front Door Contact</text><rect x="1658.7" y="723.7" width="112" height="16" rx="5" fill="black" opacity="0.6" /><text x="1662.7" y="736.7" fill="#e2e8f0" font-size="12px" text-anchor="start" stroke="black" stroke-width="3" stroke-opacity="0.5" paint-order="stroke">Back Door Contact</text><rect x="1768.7" y="823.1" width="112" height="16" rx="5" fill="black" opacity="0.6" /><text x="1772.7" y="836.1" fill="#e2e8f0" font-size="12px" text-anchor="start" stroke="black" stroke-width="3" stroke-opacity="0.5" paint-order="stroke">Humidity Bathroom</text><rect x="1910.0" y="1081.6" width="94" height="16" rx="5" fill="black" opacity="0.6" /><text x="1914.0" y="1094.6" fill="#e2e8f0" font-size="12px" text-anchor="start" stroke="black" stroke-width="3" stroke-opacity="0.5" paint-order="stroke">Button Bedside</text><rect x="1853.9" y="944.4" width="130" height="16" rx="5" fill="black" opacity="0.6" /><text x="1857.9" y="957.4" fill="#e2e8f0" font-size="12px" text-anchor="start" stroke="black" stroke-width="3" stroke-opacity="0.5" paint-order="stroke">Leak Sensor Bathroom</text><rect x="1688.6" y="1046.8" width="118" height="16" rx="5" fill="black" opacity="0.6" /><text x="1692.6" y="1059.8" fill="#e2e8f0" font-size="12px" text-anchor="start" stroke="black" stroke-width="3" stroke-opacity="0.5" paint-order="stroke">Dining Table Light</text><rect x="1729.9" y="1193.3" width="94" height="16" rx="5" fill="black" opacity="0.6" /><text x="1733.9" y="1206.3" fill="#e2e8f0" font-size="12px" text-anchor="start" stroke="black" stroke-width="3" stroke-opacity="0.5" paint-order="stroke">Motion Hallway</text><rect x="1727.9" y="1344.4" width="94" height="16" rx="5" fill="black" opacity="0.6" /><text x="1731.9" y="1357.4" fill="#e2e8f0" font-size="12px" text-anchor="start" stroke="black" stroke-width="3" stroke-opacity="0.5" paint-order="stroke">Button Kitchen</text><rect x="1390.2" y="1425.8" width="88" height="16" rx="5" fill="black" opacity="0.6" /><text x="1394.2" y="1438.8" fill="#e2e8f0" font-size="12px" text-anchor="start" stroke="black" stroke-width="3" stroke-opacity="0.5" paint-order="stroke">Kitchen Light</text><rect x="1626.5" y="1570.0" width="118" height="16" rx="5" fill="black" opacity="0.6" /><text x="1630.5" y="1583.0" fill="#e2e8f0" font-size="12px" text-anchor="start" stroke="black" stroke-width="3" stroke-opacity="0.5" paint-order="stroke">Garage Door Sensor</text><rect x="1895.6" y="1505.4" width="124" height="16" rx="5" fill="black" opacity="0.6" /><text x="1899.6" y="1518.4" fill="#e2e8f0" font-size="12px" text-anchor="start" stroke="black" stroke-width="3" stroke-opacity="0.5" paint-order="stroke">Patio String Lights</text><rect x="1824.4" y="1640.4" width="94" height="16" rx="5" fill="black" opacity="0.6" /><text x="1828.4" y="1653.4" fill="#e2e8f0" font-size="12px" text-anchor="start" stroke="black" stroke-width="3" stroke-opacity="0.5" paint-order="stroke">Stairway Light</text><rect x="1720.4" y="1751.4" width="94" height="16" rx="5" fill="black" opacity="0.6" /><text x="1724.4" y="1764.4" fill="#e2e8f0" font-size="12px" text-anchor="start" stroke="black" stroke-width="3" stroke-opacity="0.5" paint-order="stroke">Motion Kitchen</text><rect x="1598.0" y="1840.3" width="76" height="16" rx="5" fill="black" opacity="0.6" /><text x="1602.0" y="1853.3" fill="#e2e8f0" font-size="12px" text-anchor="start" stroke="black" stroke-width="3" stroke-opacity="0.5" paint-order="stroke">Temp Office</text><rect x="1292.7" y="1719.3" width="124" height="16" rx="5" fill="black" opacity="0.6" /><text x="1354.7" y="1732.3" fill="#e2e8f0" font-size="12px" text-anchor="middle" stroke="black" stroke-width="3" stroke-opacity="0.5" paint-order="stroke">Leak Sensor Kitchen</text><rect x="1061.2" y="1411.3" width="82" height="16" rx="5" fill="black" opacity="0.6" /><text x="1139.2" y="1424.3" fill="#e2e8f0" font-size="12px" text-anchor="end" stroke="black" stroke-width="3" stroke-opacity="0.5" paint-order="stroke">Hallway Plug</text><rect x="880.2" y="1608.6" width="82" height="16" rx="5" fill="black" opacity="0.6" /><text x="958.2" y="1621.6" fill="#e2e8f0" font-size="12px" text-anchor="end" stroke="black" stroke-width="3" stroke-opacity="0.5" paint-order="stroke">Laundry Plug</text><rect x="1075.4" y="1908.9" width="100" height="16" rx="5" fill="black" opacity="0.6" /><text x="1125.4" y="1921.9" fill="#e2e8f0" font-size="12px" text-anchor="middle" stroke="black" stroke-width="3" stroke-opacity="0.5" paint-order="stroke">Motion Bathroom</text><rect x="803.0" y="1820.9" width="118" height="16" rx="5" fill="black" opacity="0.6" /><text x="917.0" y="1833.9" fill="#e2e8f0" font-size="12px" text-anchor="end" stroke="black" stroke-width="3" stroke-opacity="0.5" paint-order="stroke">Window Sensor Left</text><rect x="660.2" y="1667.9" width="94" height="16" rx="5" fill="black" opacity="0.6" /><text x="750.2" y="1680.9" fill="#e2e8f0" font-size="12px" text-anchor="end" stroke="black" stroke-width="3" stroke-opacity="0.5" paint-order="stroke">Blinds Bedroom</text><rect x="524.5" y="1467.8" width="124" height="16" rx="5" fill="black" opacity="0.6" /><text x="644.5" y="1480.8" fill="#e2e8f0" font-size="12px" text-anchor="end" stroke="black" stroke-width="3" stroke-opacity="0.5" paint-order="stroke">Smoke Detector Hall</text><rect x="975.1" y="1201.9" width="112" height="16" rx="5" fill="black" opacity="0.6" /><text x="1083.1" y="1214.9" fill="#e2e8f0" font-size="12px" text-anchor="end" stroke="black" stroke-width="3" stroke-opacity="0.5" paint-order="stroke">Office Desk Light</text><rect x="699.7" y="1223.1" width="118" height="16" rx="5" fill="black" opacity="0.6" /><text x="813.7" y="1236.1" fill="#e2e8f0" font-size="12px" text-anchor="end" stroke="black" stroke-width="3" stroke-opacity="0.5" paint-order="stroke">Blinds Living Room</text><rect x="776.5" y="1023.3" width="106" height="16" rx="5" fill="black" opacity="0.6" /><text x="878.5" y="1036.3" fill="#e2e8f0" font-size="12px" text-anchor="end" stroke="black" stroke-width="3" stroke-opacity="0.5" paint-order="stroke">Vibration Sensor</text><rect x="1080.9" y="1081.6" width="124" height="16" rx="5" fill="black" opacity="0.6" /><text x="1200.9" y="1094.6" fill="#e2e8f0" font-size="12px" text-anchor="end" stroke="black" stroke-width="3" stroke-opacity="0.5" paint-order="stroke">Window Sensor Right</text></g></svg>